<svg width="320" height="370" viewBox="0 0 320 370" fill="none" xmlns="http://www.w3.org/2000/svg">
<rect x="0.5" y="0.5" width="319" height="369" fill="white" stroke="#CCD6DB"/>
<g filter="url(#filter0_i_8_559)">
<rect x="1" y="309" width="318" height="60" fill="#F2F5F6"/>
</g>
<path d="M217.316 342.613C217.419 342.613 217.507 342.653 217.582 342.732L218.324 343.537C217.913 344.046 217.407 344.435 216.805 344.706C216.208 344.977 215.489 345.112 214.649 345.112C213.898 345.112 213.221 344.984 212.619 344.727C212.022 344.47 211.511 344.113 211.086 343.656C210.661 343.199 210.335 342.653 210.106 342.018C209.882 341.383 209.77 340.69 209.77 339.939C209.77 339.178 209.896 338.483 210.148 337.853C210.4 337.218 210.755 336.672 211.212 336.215C211.669 335.758 212.215 335.403 212.85 335.151C213.489 334.894 214.194 334.766 214.964 334.766C215.715 334.766 216.371 334.887 216.931 335.13C217.496 335.368 217.979 335.685 218.38 336.082L217.75 336.957C217.713 337.013 217.664 337.062 217.603 337.104C217.547 337.146 217.468 337.167 217.365 337.167C217.258 337.167 217.148 337.125 217.036 337.041C216.924 336.957 216.782 336.866 216.609 336.768C216.436 336.67 216.217 336.579 215.951 336.495C215.69 336.411 215.356 336.369 214.95 336.369C214.474 336.369 214.035 336.453 213.634 336.621C213.237 336.784 212.894 337.02 212.605 337.328C212.32 337.636 212.096 338.012 211.933 338.455C211.774 338.894 211.695 339.388 211.695 339.939C211.695 340.508 211.774 341.015 211.933 341.458C212.096 341.901 212.316 342.275 212.591 342.578C212.866 342.881 213.191 343.115 213.564 343.278C213.937 343.437 214.339 343.516 214.768 343.516C215.025 343.516 215.256 343.502 215.461 343.474C215.671 343.446 215.862 343.402 216.035 343.341C216.212 343.28 216.378 343.203 216.532 343.11C216.691 343.012 216.847 342.893 217.001 342.753C217.048 342.711 217.097 342.678 217.148 342.655C217.199 342.627 217.255 342.613 217.316 342.613ZM222.719 337.706C223.255 337.706 223.741 337.792 224.175 337.965C224.613 338.138 224.987 338.383 225.295 338.7C225.603 339.017 225.841 339.405 226.009 339.862C226.177 340.319 226.261 340.83 226.261 341.395C226.261 341.964 226.177 342.478 226.009 342.935C225.841 343.392 225.603 343.782 225.295 344.104C224.987 344.426 224.613 344.673 224.175 344.846C223.741 345.019 223.255 345.105 222.719 345.105C222.182 345.105 221.694 345.019 221.256 344.846C220.817 344.673 220.441 344.426 220.129 344.104C219.821 343.782 219.58 343.392 219.408 342.935C219.24 342.478 219.156 341.964 219.156 341.395C219.156 340.83 219.24 340.319 219.408 339.862C219.58 339.405 219.821 339.017 220.129 338.7C220.441 338.383 220.817 338.138 221.256 337.965C221.694 337.792 222.182 337.706 222.719 337.706ZM222.719 343.775C223.316 343.775 223.757 343.574 224.042 343.173C224.331 342.772 224.476 342.184 224.476 341.409C224.476 340.634 224.331 340.044 224.042 339.638C223.757 339.232 223.316 339.029 222.719 339.029C222.112 339.029 221.664 339.234 221.375 339.645C221.085 340.051 220.941 340.639 220.941 341.409C220.941 342.179 221.085 342.767 221.375 343.173C221.664 343.574 222.112 343.775 222.719 343.775ZM227.61 345V337.818H228.667C228.891 337.818 229.038 337.923 229.108 338.133L229.227 338.7C229.371 338.551 229.523 338.415 229.682 338.294C229.845 338.173 230.015 338.068 230.193 337.979C230.375 337.89 230.568 337.823 230.774 337.776C230.979 337.729 231.203 337.706 231.446 337.706C231.838 337.706 232.185 337.774 232.489 337.909C232.792 338.04 233.044 338.226 233.245 338.469C233.45 338.707 233.604 338.994 233.707 339.33C233.814 339.661 233.868 340.028 233.868 340.429V345H232.139V340.429C232.139 339.99 232.036 339.652 231.831 339.414C231.63 339.171 231.327 339.05 230.921 339.05C230.622 339.05 230.342 339.118 230.081 339.253C229.819 339.388 229.572 339.573 229.339 339.806V345H227.61ZM235.567 345V337.818H236.624C236.848 337.818 236.995 337.923 237.065 338.133L237.184 338.7C237.328 338.551 237.48 338.415 237.639 338.294C237.802 338.173 237.972 338.068 238.15 337.979C238.332 337.89 238.525 337.823 238.731 337.776C238.936 337.729 239.16 337.706 239.403 337.706C239.795 337.706 240.142 337.774 240.446 337.909C240.749 338.04 241.001 338.226 241.202 338.469C241.407 338.707 241.561 338.994 241.664 339.33C241.771 339.661 241.825 340.028 241.825 340.429V345H240.096V340.429C240.096 339.99 239.993 339.652 239.788 339.414C239.587 339.171 239.284 339.05 238.878 339.05C238.579 339.05 238.299 339.118 238.038 339.253C237.776 339.388 237.529 339.573 237.296 339.806V345H235.567ZM246.492 337.706C246.944 337.706 247.36 337.778 247.738 337.923C248.12 338.068 248.449 338.28 248.725 338.56C249 338.835 249.215 339.176 249.369 339.582C249.523 339.983 249.6 340.443 249.6 340.961C249.6 341.092 249.593 341.201 249.579 341.29C249.569 341.374 249.548 341.442 249.516 341.493C249.488 341.54 249.448 341.575 249.397 341.598C249.345 341.617 249.28 341.626 249.201 341.626H244.763C244.814 342.363 245.012 342.905 245.358 343.25C245.703 343.595 246.16 343.768 246.73 343.768C247.01 343.768 247.25 343.735 247.451 343.67C247.656 343.605 247.833 343.532 247.983 343.453C248.137 343.374 248.27 343.301 248.382 343.236C248.498 343.171 248.61 343.138 248.718 343.138C248.788 343.138 248.848 343.152 248.9 343.18C248.951 343.208 248.995 343.248 249.033 343.299L249.537 343.929C249.345 344.153 249.131 344.342 248.893 344.496C248.655 344.645 248.405 344.767 248.144 344.86C247.887 344.949 247.623 345.012 247.353 345.049C247.087 345.086 246.828 345.105 246.576 345.105C246.076 345.105 245.612 345.023 245.183 344.86C244.753 344.692 244.38 344.447 244.063 344.125C243.745 343.798 243.496 343.397 243.314 342.921C243.132 342.44 243.041 341.885 243.041 341.255C243.041 340.765 243.12 340.305 243.279 339.876C243.437 339.442 243.664 339.066 243.958 338.749C244.256 338.427 244.618 338.173 245.043 337.986C245.472 337.799 245.955 337.706 246.492 337.706ZM246.527 338.945C246.023 338.945 245.628 339.087 245.344 339.372C245.059 339.657 244.877 340.06 244.798 340.583H248.046C248.046 340.359 248.015 340.149 247.955 339.953C247.894 339.752 247.801 339.577 247.675 339.428C247.549 339.279 247.39 339.162 247.199 339.078C247.007 338.989 246.783 338.945 246.527 338.945ZM256.049 339.337C255.998 339.402 255.946 339.454 255.895 339.491C255.848 339.528 255.778 339.547 255.685 339.547C255.596 339.547 255.51 339.521 255.426 339.47C255.342 339.414 255.242 339.353 255.125 339.288C255.008 339.218 254.868 339.157 254.705 339.106C254.546 339.05 254.348 339.022 254.11 339.022C253.807 339.022 253.541 339.078 253.312 339.19C253.083 339.297 252.892 339.454 252.738 339.659C252.589 339.864 252.477 340.114 252.402 340.408C252.327 340.697 252.29 341.026 252.29 341.395C252.29 341.778 252.33 342.118 252.409 342.417C252.493 342.716 252.612 342.968 252.766 343.173C252.92 343.374 253.107 343.528 253.326 343.635C253.545 343.738 253.793 343.789 254.068 343.789C254.343 343.789 254.565 343.756 254.733 343.691C254.906 343.621 255.05 343.546 255.167 343.467C255.284 343.383 255.384 343.308 255.468 343.243C255.557 343.173 255.655 343.138 255.762 343.138C255.902 343.138 256.007 343.192 256.077 343.299L256.574 343.929C256.383 344.153 256.175 344.342 255.951 344.496C255.727 344.645 255.494 344.767 255.251 344.86C255.013 344.949 254.766 345.012 254.509 345.049C254.252 345.086 253.998 345.105 253.746 345.105C253.303 345.105 252.885 345.023 252.493 344.86C252.101 344.692 251.758 344.449 251.464 344.132C251.175 343.815 250.944 343.427 250.771 342.97C250.603 342.508 250.519 341.983 250.519 341.395C250.519 340.868 250.594 340.38 250.743 339.932C250.897 339.479 251.121 339.09 251.415 338.763C251.709 338.432 252.073 338.173 252.507 337.986C252.941 337.799 253.44 337.706 254.005 337.706C254.542 337.706 255.011 337.792 255.412 337.965C255.818 338.138 256.182 338.385 256.504 338.707L256.049 339.337ZM260.033 345.112C259.412 345.112 258.934 344.937 258.598 344.587C258.262 344.232 258.094 343.745 258.094 343.124V339.113H257.366C257.273 339.113 257.191 339.083 257.121 339.022C257.056 338.961 257.023 338.87 257.023 338.749V338.063L258.178 337.874L258.542 335.914C258.561 335.821 258.603 335.748 258.668 335.697C258.738 335.646 258.824 335.62 258.927 335.62H259.823V337.881H261.713V339.113H259.823V343.005C259.823 343.229 259.879 343.404 259.991 343.53C260.103 343.656 260.252 343.719 260.439 343.719C260.546 343.719 260.635 343.707 260.705 343.684C260.78 343.656 260.843 343.628 260.894 343.6C260.95 343.572 260.999 343.546 261.041 343.523C261.083 343.495 261.125 343.481 261.167 343.481C261.218 343.481 261.26 343.495 261.293 343.523C261.326 343.546 261.361 343.584 261.398 343.635L261.916 344.475C261.664 344.685 261.375 344.844 261.048 344.951C260.721 345.058 260.383 345.112 260.033 345.112ZM265.893 345V334.878H269.386C270.049 334.878 270.613 334.941 271.08 335.067C271.551 335.193 271.936 335.373 272.235 335.606C272.538 335.839 272.76 336.122 272.9 336.453C273.04 336.784 273.11 337.158 273.11 337.573C273.11 337.811 273.075 338.04 273.005 338.259C272.935 338.474 272.825 338.677 272.676 338.868C272.531 339.055 272.345 339.225 272.116 339.379C271.892 339.533 271.624 339.664 271.311 339.771C272.702 340.084 273.397 340.835 273.397 342.025C273.397 342.454 273.315 342.851 273.152 343.215C272.989 343.579 272.751 343.894 272.438 344.16C272.125 344.421 271.74 344.627 271.283 344.776C270.826 344.925 270.303 345 269.715 345H265.893ZM267.776 340.562V343.53H269.687C270.037 343.53 270.329 343.488 270.562 343.404C270.8 343.32 270.989 343.208 271.129 343.068C271.274 342.928 271.376 342.765 271.437 342.578C271.502 342.391 271.535 342.193 271.535 341.983C271.535 341.764 271.5 341.568 271.43 341.395C271.36 341.218 271.25 341.068 271.101 340.947C270.952 340.821 270.76 340.725 270.527 340.66C270.294 340.595 270.011 340.562 269.68 340.562H267.776ZM267.776 339.26H269.281C269.92 339.26 270.406 339.143 270.737 338.91C271.068 338.677 271.234 338.306 271.234 337.797C271.234 337.27 271.085 336.894 270.786 336.67C270.487 336.446 270.021 336.334 269.386 336.334H267.776V339.26ZM280.542 345H279.765C279.602 345 279.474 344.977 279.38 344.93C279.287 344.879 279.217 344.778 279.17 344.629L279.016 344.118C278.834 344.281 278.655 344.426 278.477 344.552C278.305 344.673 278.125 344.776 277.938 344.86C277.752 344.944 277.553 345.007 277.343 345.049C277.133 345.091 276.9 345.112 276.643 345.112C276.34 345.112 276.06 345.072 275.803 344.993C275.547 344.909 275.325 344.785 275.138 344.622C274.956 344.459 274.814 344.256 274.711 344.013C274.609 343.77 274.557 343.488 274.557 343.166C274.557 342.895 274.627 342.629 274.767 342.368C274.912 342.102 275.15 341.864 275.481 341.654C275.813 341.439 276.254 341.262 276.804 341.122C277.355 340.982 278.039 340.903 278.855 340.884V340.464C278.855 339.983 278.753 339.629 278.547 339.4C278.347 339.167 278.053 339.05 277.665 339.05C277.385 339.05 277.152 339.083 276.965 339.148C276.779 339.213 276.615 339.288 276.475 339.372C276.34 339.451 276.214 339.524 276.097 339.589C275.981 339.654 275.852 339.687 275.712 339.687C275.596 339.687 275.495 339.657 275.411 339.596C275.327 339.535 275.26 339.461 275.208 339.372L274.893 338.819C275.719 338.063 276.716 337.685 277.882 337.685C278.302 337.685 278.676 337.755 279.002 337.895C279.334 338.03 279.614 338.222 279.842 338.469C280.071 338.712 280.244 339.003 280.36 339.344C280.482 339.685 280.542 340.058 280.542 340.464V345ZM277.182 343.922C277.36 343.922 277.523 343.906 277.672 343.873C277.822 343.84 277.962 343.791 278.092 343.726C278.228 343.661 278.356 343.581 278.477 343.488C278.603 343.39 278.729 343.276 278.855 343.145V341.934C278.351 341.957 277.929 342.002 277.588 342.067C277.252 342.128 276.982 342.207 276.776 342.305C276.571 342.403 276.424 342.517 276.335 342.648C276.251 342.779 276.209 342.921 276.209 343.075C276.209 343.378 276.298 343.595 276.475 343.726C276.657 343.857 276.893 343.922 277.182 343.922ZM282.242 345V337.818H283.299C283.523 337.818 283.67 337.923 283.74 338.133L283.859 338.7C284.004 338.551 284.156 338.415 284.314 338.294C284.478 338.173 284.648 338.068 284.825 337.979C285.007 337.89 285.201 337.823 285.406 337.776C285.612 337.729 285.836 337.706 286.078 337.706C286.47 337.706 286.818 337.774 287.121 337.909C287.425 338.04 287.677 338.226 287.877 338.469C288.083 338.707 288.237 338.994 288.339 339.33C288.447 339.661 288.5 340.028 288.5 340.429V345H286.771V340.429C286.771 339.99 286.669 339.652 286.463 339.414C286.263 339.171 285.959 339.05 285.553 339.05C285.255 339.05 284.975 339.118 284.713 339.253C284.452 339.388 284.205 339.573 283.971 339.806V345H282.242ZM291.949 334.598V340.555H292.271C292.388 340.555 292.479 340.539 292.544 340.506C292.61 340.473 292.68 340.413 292.754 340.324L294.539 338.119C294.619 338.026 294.703 337.953 294.791 337.902C294.88 337.846 294.997 337.818 295.141 337.818H296.723L294.49 340.485C294.411 340.583 294.329 340.674 294.245 340.758C294.161 340.837 294.07 340.907 293.972 340.968C294.07 341.038 294.157 341.12 294.231 341.213C294.306 341.306 294.381 341.407 294.455 341.514L296.849 345H295.288C295.153 345 295.039 344.977 294.945 344.93C294.852 344.883 294.768 344.804 294.693 344.692L292.866 341.969C292.796 341.862 292.726 341.792 292.656 341.759C292.586 341.726 292.481 341.71 292.341 341.71H291.949V345H290.22V334.598H291.949Z" fill="#0073C1"/>
<path fill-rule="evenodd" clip-rule="evenodd" d="M184 339.2V336.153C189.578 337.014 193.986 341.422 194.847 347H191.8C191.005 343.082 187.918 339.995 184 339.2V339.2ZM189.064 347H184V342.512C186.214 343.295 188.03 344.919 189.064 347V347ZM184 334V331C192.837 331 200 338.163 200 347H197C197 339.82 191.18 334 184 334V334Z" fill="#9DA0A7"/>
<path d="M101.641 209.06C100.721 208.908 99.8406 208.644 99.0006 208.268C98.1686 207.884 97.4646 207.424 96.8886 206.888L98.0406 205.22C98.1366 205.084 98.2646 204.972 98.4246 204.884C98.5926 204.788 98.7686 204.74 98.9526 204.74C99.1446 204.74 99.3406 204.792 99.5406 204.896C99.7406 204.992 99.9566 205.112 100.189 205.256C100.429 205.4 100.689 205.548 100.969 205.7C101.249 205.844 101.569 205.964 101.929 206.06L102.373 201.524C101.797 201.364 101.225 201.176 100.657 200.96C100.089 200.744 99.5766 200.452 99.1206 200.084C98.6646 199.716 98.2926 199.248 98.0046 198.68C97.7246 198.112 97.5846 197.4 97.5846 196.544C97.5846 195.912 97.7126 195.296 97.9686 194.696C98.2246 194.096 98.5966 193.556 99.0846 193.076C99.5806 192.596 100.189 192.204 100.909 191.9C101.629 191.588 102.453 191.408 103.381 191.36L103.513 190.028C103.537 189.804 103.637 189.604 103.813 189.428C103.989 189.244 104.217 189.152 104.497 189.152H105.865L105.625 191.516C106.489 191.676 107.233 191.936 107.857 192.296C108.481 192.648 109.009 193.028 109.441 193.436L108.529 194.768C108.393 194.968 108.253 195.116 108.109 195.212C107.973 195.3 107.809 195.344 107.617 195.344C107.489 195.344 107.345 195.316 107.185 195.26C107.025 195.204 106.849 195.136 106.657 195.056C106.465 194.968 106.257 194.876 106.033 194.78C105.817 194.684 105.585 194.6 105.337 194.528L104.917 198.788C105.301 198.9 105.685 199.024 106.069 199.16C106.453 199.288 106.821 199.44 107.173 199.616C107.533 199.784 107.865 199.98 108.169 200.204C108.481 200.428 108.749 200.692 108.973 200.996C109.205 201.3 109.385 201.652 109.513 202.052C109.641 202.444 109.705 202.892 109.705 203.396C109.705 204.156 109.577 204.872 109.321 205.544C109.065 206.208 108.689 206.796 108.193 207.308C107.697 207.82 107.089 208.24 106.369 208.568C105.649 208.888 104.825 209.084 103.897 209.156L103.753 210.656C103.729 210.88 103.629 211.08 103.453 211.256C103.277 211.44 103.049 211.532 102.769 211.532H101.401L101.641 209.06ZM106.177 203.948C106.177 203.492 106.029 203.128 105.733 202.856C105.445 202.584 105.061 202.356 104.581 202.172L104.197 206.132C105.517 205.9 106.177 205.172 106.177 203.948ZM101.089 196.184C101.089 196.656 101.237 197.04 101.533 197.336C101.837 197.624 102.233 197.868 102.721 198.068L103.081 194.444C102.713 194.5 102.401 194.584 102.145 194.696C101.897 194.8 101.693 194.928 101.533 195.08C101.381 195.232 101.269 195.404 101.197 195.596C101.125 195.78 101.089 195.976 101.089 196.184ZM113.906 206.312H117.266V197.492C117.266 197.06 117.278 196.608 117.303 196.136L115.322 197.78C115.194 197.884 115.066 197.96 114.939 198.008C114.811 198.048 114.686 198.068 114.566 198.068C114.358 198.068 114.17 198.024 114.002 197.936C113.842 197.84 113.722 197.74 113.642 197.636L112.466 196.076L117.914 191.504H120.987V206.312H123.866V209H113.906V206.312ZM132.844 191.324C133.708 191.324 134.476 191.448 135.148 191.696C135.82 191.936 136.388 192.264 136.852 192.68C137.316 193.096 137.668 193.58 137.908 194.132C138.148 194.676 138.268 195.252 138.268 195.86C138.268 196.412 138.212 196.9 138.1 197.324C137.988 197.74 137.82 198.104 137.596 198.416C137.38 198.72 137.108 198.98 136.78 199.196C136.46 199.412 136.092 199.592 135.676 199.736C137.612 200.408 138.58 201.724 138.58 203.684C138.58 204.612 138.412 205.42 138.076 206.108C137.74 206.796 137.288 207.368 136.72 207.824C136.16 208.28 135.508 208.624 134.764 208.856C134.02 209.08 133.244 209.192 132.436 209.192C131.604 209.192 130.864 209.104 130.216 208.928C129.568 208.744 128.992 208.464 128.488 208.088C127.984 207.704 127.54 207.216 127.156 206.624C126.78 206.032 126.452 205.328 126.172 204.512L127.828 203.84C127.972 203.776 128.112 203.732 128.248 203.708C128.392 203.684 128.532 203.672 128.668 203.672C128.924 203.672 129.152 203.724 129.352 203.828C129.56 203.924 129.716 204.068 129.82 204.26C130.18 204.924 130.56 205.408 130.96 205.712C131.368 206.008 131.844 206.156 132.388 206.156C132.804 206.156 133.164 206.088 133.468 205.952C133.78 205.808 134.036 205.628 134.236 205.412C134.444 205.188 134.6 204.936 134.704 204.656C134.808 204.376 134.86 204.092 134.86 203.804C134.86 203.428 134.832 203.092 134.776 202.796C134.728 202.492 134.584 202.232 134.344 202.016C134.104 201.8 133.74 201.636 133.252 201.524C132.772 201.404 132.1 201.344 131.236 201.344V198.776C131.964 198.776 132.552 198.72 133 198.608C133.448 198.496 133.792 198.344 134.032 198.152C134.28 197.952 134.444 197.712 134.524 197.432C134.604 197.152 134.644 196.844 134.644 196.508C134.644 195.82 134.476 195.292 134.14 194.924C133.812 194.548 133.308 194.36 132.628 194.36C132.348 194.36 132.092 194.4 131.86 194.48C131.628 194.56 131.42 194.668 131.236 194.804C131.052 194.94 130.892 195.1 130.756 195.284C130.628 195.468 130.524 195.668 130.444 195.884C130.316 196.244 130.152 196.504 129.952 196.664C129.76 196.824 129.496 196.904 129.16 196.904C129.08 196.904 128.992 196.9 128.896 196.892C128.808 196.884 128.716 196.872 128.62 196.856L126.652 196.508C126.78 195.636 127.024 194.876 127.384 194.228C127.752 193.58 128.204 193.04 128.74 192.608C129.284 192.176 129.904 191.856 130.6 191.648C131.296 191.432 132.044 191.324 132.844 191.324ZM140.502 206.888C140.502 206.632 140.55 206.396 140.646 206.18C140.742 205.956 140.878 205.764 141.054 205.604C141.238 205.436 141.45 205.304 141.69 205.208C141.938 205.112 142.214 205.064 142.518 205.064C142.878 205.064 143.19 205.128 143.454 205.256C143.718 205.376 143.938 205.544 144.114 205.76C144.29 205.968 144.418 206.212 144.498 206.492C144.586 206.764 144.63 207.052 144.63 207.356C144.63 207.756 144.566 208.184 144.438 208.64C144.31 209.088 144.118 209.54 143.862 209.996C143.614 210.452 143.302 210.9 142.926 211.34C142.55 211.78 142.118 212.18 141.63 212.54L140.982 211.964C140.894 211.876 140.826 211.792 140.778 211.712C140.738 211.64 140.718 211.548 140.718 211.436C140.718 211.356 140.746 211.268 140.802 211.172C140.858 211.084 140.926 211.004 141.006 210.932C141.102 210.836 141.214 210.72 141.342 210.584C141.47 210.448 141.598 210.296 141.726 210.128C141.854 209.96 141.97 209.776 142.074 209.576C142.186 209.376 142.27 209.164 142.326 208.94C142.046 208.916 141.794 208.848 141.57 208.736C141.346 208.624 141.154 208.476 140.994 208.292C140.842 208.108 140.722 207.9 140.634 207.668C140.546 207.428 140.502 207.168 140.502 206.888ZM157.814 193.052C157.814 193.308 157.774 193.54 157.694 193.748C157.614 193.956 157.486 194.14 157.31 194.3C157.142 194.452 156.918 194.572 156.638 194.66C156.358 194.74 156.022 194.78 155.63 194.78H151.454L150.962 197.672C151.29 197.616 151.606 197.576 151.91 197.552C152.214 197.52 152.51 197.504 152.798 197.504C153.718 197.504 154.53 197.644 155.234 197.924C155.938 198.204 156.53 198.588 157.01 199.076C157.49 199.556 157.85 200.124 158.09 200.78C158.338 201.428 158.462 202.124 158.462 202.868C158.462 203.804 158.294 204.66 157.958 205.436C157.63 206.204 157.17 206.868 156.578 207.428C155.986 207.988 155.278 208.424 154.454 208.736C153.638 209.04 152.742 209.192 151.766 209.192C151.198 209.192 150.654 209.132 150.134 209.012C149.622 208.892 149.138 208.732 148.682 208.532C148.234 208.324 147.818 208.088 147.434 207.824C147.05 207.552 146.702 207.264 146.39 206.96L147.542 205.424C147.662 205.264 147.802 205.144 147.962 205.064C148.122 204.976 148.294 204.932 148.478 204.932C148.718 204.932 148.942 205 149.15 205.136C149.366 205.264 149.598 205.408 149.846 205.568C150.102 205.72 150.398 205.86 150.734 205.988C151.07 206.116 151.486 206.18 151.982 206.18C152.478 206.18 152.902 206.1 153.254 205.94C153.606 205.772 153.89 205.548 154.106 205.268C154.33 204.98 154.49 204.648 154.586 204.272C154.69 203.888 154.742 203.48 154.742 203.048C154.742 202.2 154.502 201.556 154.022 201.116C153.542 200.668 152.862 200.444 151.982 200.444C151.198 200.444 150.43 200.592 149.678 200.888L147.374 200.264L148.862 191.516H157.814V193.052ZM173.68 200.252C173.68 201.78 173.516 203.104 173.188 204.224C172.86 205.344 172.404 206.272 171.82 207.008C171.244 207.744 170.556 208.292 169.756 208.652C168.964 209.012 168.104 209.192 167.176 209.192C166.248 209.192 165.388 209.012 164.596 208.652C163.812 208.292 163.132 207.744 162.556 207.008C161.98 206.272 161.528 205.344 161.2 204.224C160.88 203.104 160.72 201.78 160.72 200.252C160.72 198.724 160.88 197.4 161.2 196.28C161.528 195.16 161.98 194.232 162.556 193.496C163.132 192.76 163.812 192.216 164.596 191.864C165.388 191.504 166.248 191.324 167.176 191.324C168.104 191.324 168.964 191.504 169.756 191.864C170.556 192.216 171.244 192.76 171.82 193.496C172.404 194.232 172.86 195.16 173.188 196.28C173.516 197.4 173.68 198.724 173.68 200.252ZM169.84 200.252C169.84 199.044 169.764 198.056 169.612 197.288C169.46 196.512 169.256 195.904 169 195.464C168.752 195.024 168.468 194.724 168.148 194.564C167.828 194.396 167.504 194.312 167.176 194.312C166.848 194.312 166.524 194.396 166.204 194.564C165.892 194.724 165.612 195.024 165.364 195.464C165.124 195.904 164.928 196.512 164.776 197.288C164.632 198.056 164.56 199.044 164.56 200.252C164.56 201.468 164.632 202.46 164.776 203.228C164.928 203.996 165.124 204.604 165.364 205.052C165.612 205.492 165.892 205.796 166.204 205.964C166.524 206.124 166.848 206.204 167.176 206.204C167.504 206.204 167.828 206.124 168.148 205.964C168.468 205.796 168.752 205.492 169 205.052C169.256 204.604 169.46 203.996 169.612 203.228C169.764 202.46 169.84 201.468 169.84 200.252ZM188.082 200.252C188.082 201.78 187.918 203.104 187.59 204.224C187.262 205.344 186.806 206.272 186.222 207.008C185.646 207.744 184.958 208.292 184.158 208.652C183.366 209.012 182.506 209.192 181.578 209.192C180.65 209.192 179.79 209.012 178.998 208.652C178.214 208.292 177.534 207.744 176.958 207.008C176.382 206.272 175.93 205.344 175.602 204.224C175.282 203.104 175.122 201.78 175.122 200.252C175.122 198.724 175.282 197.4 175.602 196.28C175.93 195.16 176.382 194.232 176.958 193.496C177.534 192.76 178.214 192.216 178.998 191.864C179.79 191.504 180.65 191.324 181.578 191.324C182.506 191.324 183.366 191.504 184.158 191.864C184.958 192.216 185.646 192.76 186.222 193.496C186.806 194.232 187.262 195.16 187.59 196.28C187.918 197.4 188.082 198.724 188.082 200.252ZM184.242 200.252C184.242 199.044 184.166 198.056 184.014 197.288C183.862 196.512 183.658 195.904 183.402 195.464C183.154 195.024 182.87 194.724 182.55 194.564C182.23 194.396 181.906 194.312 181.578 194.312C181.25 194.312 180.926 194.396 180.606 194.564C180.294 194.724 180.014 195.024 179.766 195.464C179.526 195.904 179.33 196.512 179.178 197.288C179.034 198.056 178.962 199.044 178.962 200.252C178.962 201.468 179.034 202.46 179.178 203.228C179.33 203.996 179.526 204.604 179.766 205.052C180.014 205.492 180.294 205.796 180.606 205.964C180.926 206.124 181.25 206.204 181.578 206.204C181.906 206.204 182.23 206.124 182.55 205.964C182.87 205.796 183.154 205.492 183.402 205.052C183.658 204.604 183.862 203.996 184.014 203.228C184.166 202.46 184.242 201.468 184.242 200.252ZM189.764 207.116C189.764 206.828 189.816 206.56 189.92 206.312C190.032 206.064 190.18 205.848 190.364 205.664C190.556 205.48 190.78 205.336 191.036 205.232C191.292 205.12 191.572 205.064 191.876 205.064C192.172 205.064 192.448 205.12 192.704 205.232C192.96 205.336 193.184 205.48 193.376 205.664C193.568 205.848 193.716 206.064 193.82 206.312C193.932 206.56 193.988 206.828 193.988 207.116C193.988 207.404 193.932 207.676 193.82 207.932C193.716 208.18 193.568 208.396 193.376 208.58C193.184 208.764 192.96 208.908 192.704 209.012C192.448 209.116 192.172 209.168 191.876 209.168C191.572 209.168 191.292 209.116 191.036 209.012C190.78 208.908 190.556 208.764 190.364 208.58C190.18 208.396 190.032 208.18 189.92 207.932C189.816 207.676 189.764 207.404 189.764 207.116ZM208.636 200.252C208.636 201.78 208.472 203.104 208.144 204.224C207.816 205.344 207.36 206.272 206.776 207.008C206.2 207.744 205.512 208.292 204.712 208.652C203.92 209.012 203.06 209.192 202.132 209.192C201.204 209.192 200.344 209.012 199.552 208.652C198.768 208.292 198.088 207.744 197.512 207.008C196.936 206.272 196.484 205.344 196.156 204.224C195.836 203.104 195.676 201.78 195.676 200.252C195.676 198.724 195.836 197.4 196.156 196.28C196.484 195.16 196.936 194.232 197.512 193.496C198.088 192.76 198.768 192.216 199.552 191.864C200.344 191.504 201.204 191.324 202.132 191.324C203.06 191.324 203.92 191.504 204.712 191.864C205.512 192.216 206.2 192.76 206.776 193.496C207.36 194.232 207.816 195.16 208.144 196.28C208.472 197.4 208.636 198.724 208.636 200.252ZM204.796 200.252C204.796 199.044 204.72 198.056 204.568 197.288C204.416 196.512 204.212 195.904 203.956 195.464C203.708 195.024 203.424 194.724 203.104 194.564C202.784 194.396 202.46 194.312 202.132 194.312C201.804 194.312 201.48 194.396 201.16 194.564C200.848 194.724 200.568 195.024 200.32 195.464C200.08 195.904 199.884 196.512 199.732 197.288C199.588 198.056 199.516 199.044 199.516 200.252C199.516 201.468 199.588 202.46 199.732 203.228C199.884 203.996 200.08 204.604 200.32 205.052C200.568 205.492 200.848 205.796 201.16 205.964C201.48 206.124 201.804 206.204 202.132 206.204C202.46 206.204 202.784 206.124 203.104 205.964C203.424 205.796 203.708 205.492 203.956 205.052C204.212 204.604 204.416 203.996 204.568 203.228C204.72 202.46 204.796 201.468 204.796 200.252ZM223.038 200.252C223.038 201.78 222.874 203.104 222.546 204.224C222.218 205.344 221.762 206.272 221.178 207.008C220.602 207.744 219.914 208.292 219.114 208.652C218.322 209.012 217.462 209.192 216.534 209.192C215.606 209.192 214.746 209.012 213.954 208.652C213.17 208.292 212.49 207.744 211.914 207.008C211.338 206.272 210.886 205.344 210.558 204.224C210.238 203.104 210.078 201.78 210.078 200.252C210.078 198.724 210.238 197.4 210.558 196.28C210.886 195.16 211.338 194.232 211.914 193.496C212.49 192.76 213.17 192.216 213.954 191.864C214.746 191.504 215.606 191.324 216.534 191.324C217.462 191.324 218.322 191.504 219.114 191.864C219.914 192.216 220.602 192.76 221.178 193.496C221.762 194.232 222.218 195.16 222.546 196.28C222.874 197.4 223.038 198.724 223.038 200.252ZM219.198 200.252C219.198 199.044 219.122 198.056 218.97 197.288C218.818 196.512 218.614 195.904 218.358 195.464C218.11 195.024 217.826 194.724 217.506 194.564C217.186 194.396 216.862 194.312 216.534 194.312C216.206 194.312 215.882 194.396 215.562 194.564C215.25 194.724 214.97 195.024 214.722 195.464C214.482 195.904 214.286 196.512 214.134 197.288C213.99 198.056 213.918 199.044 213.918 200.252C213.918 201.468 213.99 202.46 214.134 203.228C214.286 203.996 214.482 204.604 214.722 205.052C214.97 205.492 215.25 205.796 215.562 205.964C215.882 206.124 216.206 206.204 216.534 206.204C216.862 206.204 217.186 206.124 217.506 205.964C217.826 205.796 218.11 205.492 218.358 205.052C218.614 204.604 218.818 203.996 218.97 203.228C219.122 202.46 219.198 201.468 219.198 200.252Z" fill="#3C424F"/>
<path d="M119.354 233.89H122.249V235H118.009V227.77H119.354V233.89ZM129.946 235H128.906C128.79 235 128.693 234.972 128.616 234.915C128.543 234.855 128.49 234.782 128.456 234.695L127.916 233.22H124.921L124.381 234.695C124.355 234.772 124.301 234.842 124.221 234.905C124.145 234.968 124.05 235 123.936 235H122.891L125.731 227.77H127.106L129.946 235ZM125.266 232.27H127.571L126.691 229.865C126.651 229.758 126.606 229.633 126.556 229.49C126.51 229.343 126.463 229.185 126.416 229.015C126.37 229.185 126.323 229.343 126.276 229.49C126.233 229.637 126.19 229.765 126.146 229.875L125.266 232.27ZM134.983 229.085C134.946 229.158 134.903 229.21 134.853 229.24C134.806 229.27 134.749 229.285 134.683 229.285C134.616 229.285 134.541 229.26 134.458 229.21C134.374 229.157 134.276 229.098 134.163 229.035C134.049 228.972 133.916 228.915 133.763 228.865C133.613 228.812 133.434 228.785 133.228 228.785C133.041 228.785 132.878 228.808 132.738 228.855C132.601 228.898 132.484 228.96 132.388 229.04C132.294 229.12 132.224 229.217 132.178 229.33C132.131 229.44 132.108 229.562 132.108 229.695C132.108 229.865 132.154 230.007 132.248 230.12C132.344 230.233 132.471 230.33 132.628 230.41C132.784 230.49 132.963 230.562 133.163 230.625C133.363 230.688 133.566 230.757 133.773 230.83C133.983 230.9 134.188 230.983 134.388 231.08C134.588 231.173 134.766 231.293 134.923 231.44C135.079 231.583 135.204 231.76 135.298 231.97C135.394 232.18 135.443 232.435 135.443 232.735C135.443 233.062 135.386 233.368 135.273 233.655C135.163 233.938 134.999 234.187 134.783 234.4C134.569 234.61 134.308 234.777 133.998 234.9C133.688 235.02 133.333 235.08 132.933 235.08C132.703 235.08 132.476 235.057 132.253 235.01C132.029 234.967 131.814 234.903 131.608 234.82C131.404 234.737 131.213 234.637 131.033 234.52C130.856 234.403 130.698 234.273 130.558 234.13L130.948 233.485C130.984 233.438 131.028 233.4 131.078 233.37C131.131 233.337 131.189 233.32 131.253 233.32C131.336 233.32 131.426 233.355 131.523 233.425C131.619 233.492 131.733 233.567 131.863 233.65C131.996 233.733 132.151 233.81 132.328 233.88C132.508 233.947 132.723 233.98 132.973 233.98C133.356 233.98 133.653 233.89 133.863 233.71C134.073 233.527 134.178 233.265 134.178 232.925C134.178 232.735 134.129 232.58 134.033 232.46C133.939 232.34 133.814 232.24 133.658 232.16C133.501 232.077 133.323 232.007 133.123 231.95C132.923 231.893 132.719 231.832 132.513 231.765C132.306 231.698 132.103 231.618 131.903 231.525C131.703 231.432 131.524 231.31 131.368 231.16C131.211 231.01 131.084 230.823 130.988 230.6C130.894 230.373 130.848 230.095 130.848 229.765C130.848 229.502 130.899 229.245 131.003 228.995C131.109 228.745 131.263 228.523 131.463 228.33C131.666 228.137 131.914 227.982 132.208 227.865C132.501 227.748 132.836 227.69 133.213 227.69C133.639 227.69 134.033 227.757 134.393 227.89C134.753 228.023 135.059 228.21 135.313 228.45L134.983 229.085ZM141.981 227.77V228.875H139.806V235H138.461V228.875H136.276V227.77H141.981ZM150.16 227.77V228.84H146.955V230.845H149.48V231.88H146.955V233.925H150.16V235H145.6V227.77H150.16ZM152.444 227.77C152.504 227.77 152.554 227.773 152.594 227.78C152.634 227.783 152.669 227.793 152.699 227.81C152.732 227.823 152.764 227.845 152.794 227.875C152.824 227.902 152.857 227.938 152.894 227.985L156.689 232.82C156.676 232.703 156.666 232.59 156.659 232.48C156.656 232.367 156.654 232.262 156.654 232.165V227.77H157.839V235H157.144C157.037 235 156.949 234.983 156.879 234.95C156.809 234.917 156.741 234.857 156.674 234.77L152.894 229.955C152.904 230.062 152.911 230.168 152.914 230.275C152.921 230.378 152.924 230.473 152.924 230.56V235H151.739V227.77H152.444ZM164.809 227.77V228.875H162.634V235H161.289V228.875H159.104V227.77H164.809ZM167.468 232.175V235H166.123V227.77H168.328C168.822 227.77 169.243 227.822 169.593 227.925C169.947 228.025 170.235 228.167 170.458 228.35C170.685 228.533 170.85 228.753 170.953 229.01C171.06 229.263 171.113 229.543 171.113 229.85C171.113 230.093 171.077 230.323 171.003 230.54C170.933 230.757 170.83 230.953 170.693 231.13C170.56 231.307 170.393 231.462 170.193 231.595C169.997 231.728 169.772 231.835 169.518 231.915C169.688 232.012 169.835 232.15 169.958 232.33L171.768 235H170.558C170.442 235 170.342 234.977 170.258 234.93C170.178 234.883 170.11 234.817 170.053 234.73L168.533 232.415C168.477 232.328 168.413 232.267 168.343 232.23C168.277 232.193 168.177 232.175 168.043 232.175H167.468ZM167.468 231.21H168.308C168.562 231.21 168.782 231.178 168.968 231.115C169.158 231.052 169.313 230.965 169.433 230.855C169.557 230.742 169.648 230.608 169.708 230.455C169.768 230.302 169.798 230.133 169.798 229.95C169.798 229.583 169.677 229.302 169.433 229.105C169.193 228.908 168.825 228.81 168.328 228.81H167.468V231.21ZM176.263 232.19V235H174.918V232.19L172.283 227.77H173.468C173.584 227.77 173.676 227.798 173.743 227.855C173.813 227.912 173.871 227.983 173.918 228.07L175.243 230.485C175.319 230.628 175.386 230.765 175.443 230.895C175.499 231.022 175.551 231.147 175.598 231.27C175.641 231.143 175.689 231.017 175.743 230.89C175.799 230.76 175.866 230.625 175.943 230.485L177.258 228.07C177.294 227.997 177.349 227.928 177.423 227.865C177.496 227.802 177.589 227.77 177.703 227.77H178.893L176.263 232.19ZM179.188 234.32C179.188 234.217 179.206 234.118 179.243 234.025C179.283 233.932 179.336 233.852 179.403 233.785C179.473 233.718 179.555 233.665 179.648 233.625C179.741 233.585 179.841 233.565 179.948 233.565C180.051 233.565 180.15 233.585 180.243 233.625C180.336 233.665 180.416 233.718 180.483 233.785C180.55 233.852 180.603 233.932 180.643 234.025C180.683 234.118 180.703 234.217 180.703 234.32C180.703 234.427 180.683 234.527 180.643 234.62C180.603 234.71 180.55 234.788 180.483 234.855C180.416 234.922 180.336 234.973 180.243 235.01C180.15 235.05 180.051 235.07 179.948 235.07C179.841 235.07 179.741 235.05 179.648 235.01C179.555 234.973 179.473 234.922 179.403 234.855C179.336 234.788 179.283 234.71 179.243 234.62C179.206 234.527 179.188 234.427 179.188 234.32ZM179.188 230.755C179.188 230.652 179.206 230.553 179.243 230.46C179.283 230.367 179.336 230.287 179.403 230.22C179.473 230.153 179.555 230.1 179.648 230.06C179.741 230.02 179.841 230 179.948 230C180.051 230 180.15 230.02 180.243 230.06C180.336 230.1 180.416 230.153 180.483 230.22C180.55 230.287 180.603 230.367 180.643 230.46C180.683 230.553 180.703 230.652 180.703 230.755C180.703 230.862 180.683 230.962 180.643 231.055C180.603 231.145 180.55 231.223 180.483 231.29C180.416 231.357 180.336 231.41 180.243 231.45C180.15 231.487 180.051 231.505 179.948 231.505C179.841 231.505 179.741 231.487 179.648 231.45C179.555 231.41 179.473 231.357 179.403 231.29C179.336 231.223 179.283 231.145 179.243 231.055C179.206 230.962 179.188 230.862 179.188 230.755ZM189.326 227.77V228.84H186.121V230.98H188.826V232.055H186.121V235H184.766V227.77H189.326ZM195.358 227.77V228.84H192.153V230.845H194.678V231.88H192.153V233.925H195.358V235H190.798V227.77H195.358ZM196.938 235V227.77H199.433C199.906 227.77 200.309 227.815 200.643 227.905C200.979 227.995 201.254 228.123 201.468 228.29C201.684 228.457 201.843 228.658 201.943 228.895C202.043 229.132 202.093 229.398 202.093 229.695C202.093 229.865 202.068 230.028 202.018 230.185C201.968 230.338 201.889 230.483 201.783 230.62C201.679 230.753 201.546 230.875 201.383 230.985C201.223 231.095 201.031 231.188 200.808 231.265C201.801 231.488 202.298 232.025 202.298 232.875C202.298 233.182 202.239 233.465 202.123 233.725C202.006 233.985 201.836 234.21 201.613 234.4C201.389 234.587 201.114 234.733 200.788 234.84C200.461 234.947 200.088 235 199.668 235H196.938ZM198.283 231.83V233.95H199.648C199.898 233.95 200.106 233.92 200.273 233.86C200.443 233.8 200.578 233.72 200.678 233.62C200.781 233.52 200.854 233.403 200.898 233.27C200.944 233.137 200.968 232.995 200.968 232.845C200.968 232.688 200.943 232.548 200.893 232.425C200.843 232.298 200.764 232.192 200.658 232.105C200.551 232.015 200.414 231.947 200.248 231.9C200.081 231.853 199.879 231.83 199.643 231.83H198.283ZM198.283 230.9H199.358C199.814 230.9 200.161 230.817 200.398 230.65C200.634 230.483 200.753 230.218 200.753 229.855C200.753 229.478 200.646 229.21 200.433 229.05C200.219 228.89 199.886 228.81 199.433 228.81H198.283V230.9Z" fill="#6D727B"/>
<path d="M81.188 99.476C81.284 99.476 81.38 99.496 81.476 99.536C81.572 99.568 81.664 99.628 81.752 99.716L83.36 101.408C82.656 102.328 81.772 103.024 80.708 103.496C79.652 103.96 78.4 104.192 76.952 104.192C75.624 104.192 74.432 103.968 73.376 103.52C72.328 103.064 71.436 102.44 70.7 101.648C69.972 100.848 69.412 99.904 69.02 98.816C68.628 97.72 68.432 96.532 68.432 95.252C68.432 93.948 68.656 92.752 69.104 91.664C69.552 90.568 70.176 89.624 70.976 88.832C71.784 88.04 72.748 87.424 73.868 86.984C74.988 86.544 76.224 86.324 77.576 86.324C78.232 86.324 78.848 86.384 79.424 86.504C80.008 86.616 80.552 86.776 81.056 86.984C81.56 87.184 82.024 87.428 82.448 87.716C82.872 87.996 83.248 88.308 83.576 88.652L82.208 90.488C82.12 90.6 82.016 90.704 81.896 90.8C81.776 90.888 81.608 90.932 81.392 90.932C81.248 90.932 81.112 90.9 80.984 90.836C80.856 90.772 80.72 90.696 80.576 90.608C80.432 90.512 80.272 90.412 80.096 90.308C79.928 90.196 79.724 90.096 79.484 90.008C79.252 89.912 78.976 89.832 78.656 89.768C78.344 89.704 77.976 89.672 77.552 89.672C76.816 89.672 76.144 89.804 75.536 90.068C74.928 90.324 74.404 90.696 73.964 91.184C73.532 91.664 73.192 92.248 72.944 92.936C72.704 93.624 72.584 94.396 72.584 95.252C72.584 96.148 72.704 96.944 72.944 97.64C73.192 98.336 73.524 98.924 73.94 99.404C74.364 99.876 74.856 100.236 75.416 100.484C75.976 100.732 76.576 100.856 77.216 100.856C77.584 100.856 77.92 100.84 78.224 100.808C78.528 100.768 78.808 100.704 79.064 100.616C79.328 100.528 79.576 100.416 79.808 100.28C80.048 100.136 80.288 99.96 80.528 99.752C80.624 99.672 80.728 99.608 80.84 99.56C80.952 99.504 81.068 99.476 81.188 99.476ZM88.6934 91.556V99.452C88.6934 100.068 88.8334 100.544 89.1134 100.88C89.3934 101.216 89.8054 101.384 90.3494 101.384C90.7574 101.384 91.1374 101.3 91.4894 101.132C91.8494 100.964 92.1974 100.728 92.5334 100.424V91.556H96.2534V104H93.9494C93.4854 104 93.1814 103.792 93.0374 103.376L92.8094 102.656C92.5694 102.888 92.3214 103.1 92.0654 103.292C91.8094 103.476 91.5334 103.636 91.2374 103.772C90.9494 103.9 90.6374 104 90.3014 104.072C89.9654 104.152 89.5974 104.192 89.1974 104.192C88.5174 104.192 87.9134 104.076 87.3854 103.844C86.8654 103.604 86.4254 103.272 86.0654 102.848C85.7054 102.424 85.4334 101.924 85.2494 101.348C85.0654 100.772 84.9734 100.14 84.9734 99.452V91.556H88.6934ZM99.1353 104V91.556H101.343C101.527 91.556 101.679 91.572 101.799 91.604C101.927 91.636 102.031 91.688 102.111 91.76C102.199 91.824 102.263 91.912 102.303 92.024C102.351 92.136 102.391 92.272 102.423 92.432L102.627 93.596C103.083 92.892 103.595 92.336 104.163 91.928C104.731 91.52 105.351 91.316 106.023 91.316C106.591 91.316 107.047 91.452 107.391 91.724L106.911 94.46C106.879 94.628 106.815 94.748 106.719 94.82C106.623 94.884 106.495 94.916 106.335 94.916C106.199 94.916 106.039 94.9 105.855 94.868C105.671 94.828 105.439 94.808 105.159 94.808C104.183 94.808 103.415 95.328 102.855 96.368V104H99.1353ZM109.049 104V91.556H111.257C111.441 91.556 111.593 91.572 111.713 91.604C111.841 91.636 111.945 91.688 112.025 91.76C112.113 91.824 112.177 91.912 112.217 92.024C112.265 92.136 112.305 92.272 112.337 92.432L112.541 93.596C112.997 92.892 113.509 92.336 114.077 91.928C114.645 91.52 115.265 91.316 115.937 91.316C116.505 91.316 116.961 91.452 117.305 91.724L116.825 94.46C116.793 94.628 116.729 94.748 116.633 94.82C116.537 94.884 116.409 94.916 116.249 94.916C116.113 94.916 115.953 94.9 115.769 94.868C115.585 94.828 115.353 94.808 115.073 94.808C114.097 94.808 113.329 95.328 112.769 96.368V104H109.049ZM124.291 91.364C125.115 91.364 125.867 91.492 126.547 91.748C127.235 92.004 127.823 92.376 128.311 92.864C128.807 93.352 129.191 93.952 129.463 94.664C129.743 95.368 129.883 96.168 129.883 97.064C129.883 97.344 129.871 97.572 129.847 97.748C129.823 97.924 129.779 98.064 129.715 98.168C129.651 98.272 129.563 98.344 129.451 98.384C129.347 98.424 129.211 98.444 129.043 98.444H121.867C121.987 99.484 122.303 100.24 122.815 100.712C123.327 101.176 123.987 101.408 124.795 101.408C125.227 101.408 125.599 101.356 125.911 101.252C126.223 101.148 126.499 101.032 126.739 100.904C126.987 100.776 127.211 100.66 127.411 100.556C127.619 100.452 127.835 100.4 128.059 100.4C128.355 100.4 128.579 100.508 128.731 100.724L129.811 102.056C129.427 102.496 129.011 102.856 128.563 103.136C128.123 103.408 127.667 103.624 127.195 103.784C126.731 103.936 126.263 104.04 125.791 104.096C125.327 104.16 124.883 104.192 124.459 104.192C123.587 104.192 122.767 104.052 121.999 103.772C121.239 103.484 120.571 103.06 119.995 102.5C119.427 101.94 118.975 101.244 118.639 100.412C118.311 99.58 118.147 98.612 118.147 97.508C118.147 96.676 118.287 95.888 118.567 95.144C118.855 94.4 119.263 93.748 119.791 93.188C120.327 92.628 120.971 92.184 121.723 91.856C122.483 91.528 123.339 91.364 124.291 91.364ZM124.363 93.932C123.651 93.932 123.095 94.136 122.695 94.544C122.295 94.944 122.031 95.524 121.903 96.284H126.547C126.547 95.988 126.507 95.7 126.427 95.42C126.355 95.14 126.231 94.892 126.055 94.676C125.887 94.452 125.663 94.272 125.383 94.136C125.103 94 124.763 93.932 124.363 93.932ZM132.018 104V91.556H134.322C134.554 91.556 134.746 91.608 134.898 91.712C135.058 91.816 135.17 91.972 135.234 92.18L135.45 92.9C135.69 92.676 135.938 92.468 136.194 92.276C136.45 92.084 136.722 91.924 137.01 91.796C137.306 91.66 137.622 91.556 137.958 91.484C138.302 91.404 138.674 91.364 139.074 91.364C139.754 91.364 140.354 91.484 140.874 91.724C141.402 91.956 141.846 92.284 142.206 92.708C142.566 93.124 142.838 93.624 143.022 94.208C143.206 94.784 143.298 95.412 143.298 96.092V104H139.578V96.092C139.578 95.484 139.438 95.012 139.158 94.676C138.878 94.332 138.466 94.16 137.922 94.16C137.514 94.16 137.13 94.248 136.77 94.424C136.41 94.6 136.066 94.836 135.738 95.132V104H132.018ZM150.308 104.192C149.716 104.192 149.192 104.108 148.736 103.94C148.288 103.764 147.908 103.52 147.596 103.208C147.292 102.888 147.06 102.504 146.9 102.056C146.74 101.608 146.66 101.108 146.66 100.556V94.124H145.604C145.412 94.124 145.248 94.064 145.112 93.944C144.976 93.816 144.908 93.632 144.908 93.392V91.94L146.888 91.556L147.62 88.52C147.716 88.136 147.988 87.944 148.436 87.944H150.38V91.58H153.404V94.124H150.38V100.304C150.38 100.592 150.448 100.832 150.584 101.024C150.728 101.208 150.932 101.3 151.196 101.3C151.332 101.3 151.444 101.288 151.532 101.264C151.628 101.232 151.708 101.2 151.772 101.168C151.844 101.128 151.908 101.096 151.964 101.072C152.028 101.04 152.1 101.024 152.18 101.024C152.292 101.024 152.38 101.052 152.444 101.108C152.516 101.156 152.588 101.236 152.66 101.348L153.788 103.112C153.308 103.472 152.768 103.744 152.168 103.928C151.568 104.104 150.948 104.192 150.308 104.192ZM176.462 104H173.318C172.966 104 172.674 103.92 172.442 103.76C172.218 103.592 172.062 103.38 171.974 103.124L170.942 100.076H164.294L163.262 103.124C163.182 103.348 163.026 103.552 162.794 103.736C162.562 103.912 162.278 104 161.942 104H158.774L165.542 86.516H169.694L176.462 104ZM165.23 97.316H170.006L168.398 92.528C168.294 92.224 168.17 91.868 168.026 91.46C167.89 91.044 167.754 90.596 167.618 90.116C167.49 90.604 167.358 91.056 167.222 91.472C167.086 91.888 166.958 92.248 166.838 92.552L165.23 97.316ZM186.861 94.508C186.749 94.644 186.641 94.752 186.537 94.832C186.433 94.912 186.285 94.952 186.093 94.952C185.909 94.952 185.741 94.908 185.589 94.82C185.445 94.732 185.281 94.636 185.097 94.532C184.913 94.42 184.697 94.32 184.449 94.232C184.201 94.144 183.893 94.1 183.525 94.1C183.069 94.1 182.673 94.184 182.337 94.352C182.009 94.52 181.737 94.76 181.521 95.072C181.305 95.384 181.145 95.768 181.041 96.224C180.937 96.672 180.885 97.18 180.885 97.748C180.885 98.94 181.113 99.856 181.569 100.496C182.033 101.136 182.669 101.456 183.477 101.456C183.909 101.456 184.249 101.404 184.497 101.3C184.753 101.188 184.969 101.068 185.145 100.94C185.321 100.804 185.481 100.68 185.625 100.568C185.777 100.456 185.965 100.4 186.189 100.4C186.485 100.4 186.709 100.508 186.861 100.724L187.941 102.056C187.557 102.496 187.153 102.856 186.729 103.136C186.305 103.408 185.869 103.624 185.421 103.784C184.981 103.936 184.537 104.04 184.089 104.096C183.641 104.16 183.205 104.192 182.781 104.192C182.021 104.192 181.293 104.048 180.597 103.76C179.909 103.472 179.301 103.056 178.773 102.512C178.253 101.96 177.837 101.284 177.525 100.484C177.221 99.684 177.069 98.772 177.069 97.748C177.069 96.852 177.201 96.016 177.465 95.24C177.737 94.456 178.133 93.78 178.653 93.212C179.181 92.636 179.829 92.184 180.597 91.856C181.373 91.528 182.269 91.364 183.285 91.364C184.261 91.364 185.117 91.52 185.853 91.832C186.589 92.144 187.253 92.6 187.845 93.2L186.861 94.508ZM198.533 94.508C198.421 94.644 198.313 94.752 198.209 94.832C198.105 94.912 197.957 94.952 197.765 94.952C197.581 94.952 197.413 94.908 197.261 94.82C197.117 94.732 196.953 94.636 196.769 94.532C196.585 94.42 196.369 94.32 196.121 94.232C195.873 94.144 195.565 94.1 195.197 94.1C194.741 94.1 194.345 94.184 194.009 94.352C193.681 94.52 193.409 94.76 193.193 95.072C192.977 95.384 192.817 95.768 192.713 96.224C192.609 96.672 192.557 97.18 192.557 97.748C192.557 98.94 192.785 99.856 193.241 100.496C193.705 101.136 194.341 101.456 195.149 101.456C195.581 101.456 195.921 101.404 196.169 101.3C196.425 101.188 196.641 101.068 196.817 100.94C196.993 100.804 197.153 100.68 197.297 100.568C197.449 100.456 197.637 100.4 197.861 100.4C198.157 100.4 198.381 100.508 198.533 100.724L199.613 102.056C199.229 102.496 198.825 102.856 198.401 103.136C197.977 103.408 197.541 103.624 197.093 103.784C196.653 103.936 196.209 104.04 195.761 104.096C195.313 104.16 194.877 104.192 194.453 104.192C193.693 104.192 192.965 104.048 192.269 103.76C191.581 103.472 190.973 103.056 190.445 102.512C189.925 101.96 189.509 101.284 189.197 100.484C188.893 99.684 188.741 98.772 188.741 97.748C188.741 96.852 188.873 96.016 189.137 95.24C189.409 94.456 189.805 93.78 190.325 93.212C190.853 92.636 191.501 92.184 192.269 91.856C193.045 91.528 193.941 91.364 194.957 91.364C195.933 91.364 196.789 91.52 197.525 91.832C198.261 92.144 198.925 92.6 199.517 93.2L198.533 94.508ZM206.773 91.364C207.717 91.364 208.577 91.512 209.353 91.808C210.129 92.104 210.793 92.528 211.345 93.08C211.905 93.632 212.337 94.304 212.641 95.096C212.953 95.88 213.109 96.764 213.109 97.748C213.109 98.74 212.953 99.636 212.641 100.436C212.337 101.228 211.905 101.904 211.345 102.464C210.793 103.016 210.129 103.444 209.353 103.748C208.577 104.044 207.717 104.192 206.773 104.192C205.821 104.192 204.953 104.044 204.169 103.748C203.393 103.444 202.721 103.016 202.153 102.464C201.593 101.904 201.157 101.228 200.845 100.436C200.541 99.636 200.389 98.74 200.389 97.748C200.389 96.764 200.541 95.88 200.845 95.096C201.157 94.304 201.593 93.632 202.153 93.08C202.721 92.528 203.393 92.104 204.169 91.808C204.953 91.512 205.821 91.364 206.773 91.364ZM206.773 101.432C207.629 101.432 208.257 101.132 208.657 100.532C209.065 99.924 209.269 99.004 209.269 97.772C209.269 96.54 209.065 95.624 208.657 95.024C208.257 94.424 207.629 94.124 206.773 94.124C205.893 94.124 205.249 94.424 204.841 95.024C204.433 95.624 204.229 96.54 204.229 97.772C204.229 99.004 204.433 99.924 204.841 100.532C205.249 101.132 205.893 101.432 206.773 101.432ZM218.631 91.556V99.452C218.631 100.068 218.771 100.544 219.051 100.88C219.331 101.216 219.743 101.384 220.287 101.384C220.695 101.384 221.075 101.3 221.427 101.132C221.787 100.964 222.135 100.728 222.471 100.424V91.556H226.191V104H223.887C223.423 104 223.119 103.792 222.975 103.376L222.747 102.656C222.507 102.888 222.259 103.1 222.003 103.292C221.747 103.476 221.471 103.636 221.175 103.772C220.887 103.9 220.575 104 220.239 104.072C219.903 104.152 219.535 104.192 219.135 104.192C218.455 104.192 217.851 104.076 217.323 103.844C216.803 103.604 216.363 103.272 216.003 102.848C215.643 102.424 215.371 101.924 215.187 101.348C215.003 100.772 214.911 100.14 214.911 99.452V91.556H218.631ZM229.073 104V91.556H231.377C231.609 91.556 231.801 91.608 231.953 91.712C232.113 91.816 232.225 91.972 232.289 92.18L232.505 92.9C232.745 92.676 232.993 92.468 233.249 92.276C233.505 92.084 233.777 91.924 234.065 91.796C234.361 91.66 234.677 91.556 235.013 91.484C235.357 91.404 235.729 91.364 236.129 91.364C236.809 91.364 237.409 91.484 237.929 91.724C238.457 91.956 238.901 92.284 239.261 92.708C239.621 93.124 239.893 93.624 240.077 94.208C240.261 94.784 240.353 95.412 240.353 96.092V104H236.633V96.092C236.633 95.484 236.493 95.012 236.213 94.676C235.933 94.332 235.521 94.16 234.977 94.16C234.569 94.16 234.185 94.248 233.825 94.424C233.465 94.6 233.121 94.836 232.793 95.132V104H229.073ZM247.363 104.192C246.771 104.192 246.247 104.108 245.791 103.94C245.343 103.764 244.963 103.52 244.651 103.208C244.347 102.888 244.115 102.504 243.955 102.056C243.795 101.608 243.715 101.108 243.715 100.556V94.124H242.659C242.467 94.124 242.303 94.064 242.167 93.944C242.031 93.816 241.963 93.632 241.963 93.392V91.94L243.943 91.556L244.675 88.52C244.771 88.136 245.043 87.944 245.491 87.944H247.435V91.58H250.459V94.124H247.435V100.304C247.435 100.592 247.503 100.832 247.639 101.024C247.783 101.208 247.987 101.3 248.251 101.3C248.387 101.3 248.499 101.288 248.587 101.264C248.683 101.232 248.763 101.2 248.827 101.168C248.899 101.128 248.963 101.096 249.019 101.072C249.083 101.04 249.155 101.024 249.235 101.024C249.347 101.024 249.435 101.052 249.499 101.108C249.571 101.156 249.643 101.236 249.715 101.348L250.843 103.112C250.363 103.472 249.823 103.744 249.223 103.928C248.623 104.104 248.003 104.192 247.363 104.192Z" fill="#003349"/>
<path d="M136.18 176V165.878H139.673C140.336 165.878 140.901 165.941 141.367 166.067C141.839 166.193 142.224 166.373 142.522 166.606C142.826 166.839 143.047 167.122 143.187 167.453C143.327 167.784 143.397 168.158 143.397 168.573C143.397 168.811 143.362 169.04 143.292 169.259C143.222 169.474 143.113 169.677 142.963 169.868C142.819 170.055 142.632 170.225 142.403 170.379C142.179 170.533 141.911 170.664 141.598 170.771C142.989 171.084 143.684 171.835 143.684 173.025C143.684 173.454 143.603 173.851 143.439 174.215C143.276 174.579 143.038 174.894 142.725 175.16C142.413 175.421 142.028 175.627 141.57 175.776C141.113 175.925 140.59 176 140.002 176H136.18ZM138.063 171.562V174.53H139.974C140.324 174.53 140.616 174.488 140.849 174.404C141.087 174.32 141.276 174.208 141.416 174.068C141.561 173.928 141.664 173.765 141.724 173.578C141.79 173.391 141.822 173.193 141.822 172.983C141.822 172.764 141.787 172.568 141.717 172.395C141.647 172.218 141.538 172.068 141.388 171.947C141.239 171.821 141.048 171.725 140.814 171.66C140.581 171.595 140.299 171.562 139.967 171.562H138.063ZM138.063 170.26H139.568C140.208 170.26 140.693 170.143 141.024 169.91C141.356 169.677 141.521 169.306 141.521 168.797C141.521 168.27 141.372 167.894 141.073 167.67C140.775 167.446 140.308 167.334 139.673 167.334H138.063V170.26ZM150.829 176H150.052C149.889 176 149.761 175.977 149.667 175.93C149.574 175.879 149.504 175.778 149.457 175.629L149.303 175.118C149.121 175.281 148.942 175.426 148.764 175.552C148.592 175.673 148.412 175.776 148.225 175.86C148.039 175.944 147.84 176.007 147.63 176.049C147.42 176.091 147.187 176.112 146.93 176.112C146.627 176.112 146.347 176.072 146.09 175.993C145.834 175.909 145.612 175.785 145.425 175.622C145.243 175.459 145.101 175.256 144.998 175.013C144.896 174.77 144.844 174.488 144.844 174.166C144.844 173.895 144.914 173.629 145.054 173.368C145.199 173.102 145.437 172.864 145.768 172.654C146.1 172.439 146.541 172.262 147.091 172.122C147.642 171.982 148.326 171.903 149.142 171.884V171.464C149.142 170.983 149.04 170.629 148.834 170.4C148.634 170.167 148.34 170.05 147.952 170.05C147.672 170.05 147.439 170.083 147.252 170.148C147.066 170.213 146.902 170.288 146.762 170.372C146.627 170.451 146.501 170.524 146.384 170.589C146.268 170.654 146.139 170.687 145.999 170.687C145.883 170.687 145.782 170.657 145.698 170.596C145.614 170.535 145.547 170.461 145.495 170.372L145.18 169.819C146.006 169.063 147.003 168.685 148.169 168.685C148.589 168.685 148.963 168.755 149.289 168.895C149.621 169.03 149.901 169.222 150.129 169.469C150.358 169.712 150.531 170.003 150.647 170.344C150.769 170.685 150.829 171.058 150.829 171.464V176ZM147.469 174.922C147.647 174.922 147.81 174.906 147.959 174.873C148.109 174.84 148.249 174.791 148.379 174.726C148.515 174.661 148.643 174.581 148.764 174.488C148.89 174.39 149.016 174.276 149.142 174.145V172.934C148.638 172.957 148.216 173.002 147.875 173.067C147.539 173.128 147.269 173.207 147.063 173.305C146.858 173.403 146.711 173.517 146.622 173.648C146.538 173.779 146.496 173.921 146.496 174.075C146.496 174.378 146.585 174.595 146.762 174.726C146.944 174.857 147.18 174.922 147.469 174.922ZM154.37 165.598V176H152.641V165.598H154.37ZM161.958 176H161.181C161.018 176 160.89 175.977 160.796 175.93C160.703 175.879 160.633 175.778 160.586 175.629L160.432 175.118C160.25 175.281 160.071 175.426 159.893 175.552C159.721 175.673 159.541 175.776 159.354 175.86C159.168 175.944 158.969 176.007 158.759 176.049C158.549 176.091 158.316 176.112 158.059 176.112C157.756 176.112 157.476 176.072 157.219 175.993C156.963 175.909 156.741 175.785 156.554 175.622C156.372 175.459 156.23 175.256 156.127 175.013C156.025 174.77 155.973 174.488 155.973 174.166C155.973 173.895 156.043 173.629 156.183 173.368C156.328 173.102 156.566 172.864 156.897 172.654C157.229 172.439 157.67 172.262 158.22 172.122C158.771 171.982 159.455 171.903 160.271 171.884V171.464C160.271 170.983 160.169 170.629 159.963 170.4C159.763 170.167 159.469 170.05 159.081 170.05C158.801 170.05 158.568 170.083 158.381 170.148C158.195 170.213 158.031 170.288 157.891 170.372C157.756 170.451 157.63 170.524 157.513 170.589C157.397 170.654 157.268 170.687 157.128 170.687C157.012 170.687 156.911 170.657 156.827 170.596C156.743 170.535 156.676 170.461 156.624 170.372L156.309 169.819C157.135 169.063 158.132 168.685 159.298 168.685C159.718 168.685 160.092 168.755 160.418 168.895C160.75 169.03 161.03 169.222 161.258 169.469C161.487 169.712 161.66 170.003 161.776 170.344C161.898 170.685 161.958 171.058 161.958 171.464V176ZM158.598 174.922C158.776 174.922 158.939 174.906 159.088 174.873C159.238 174.84 159.378 174.791 159.508 174.726C159.644 174.661 159.772 174.581 159.893 174.488C160.019 174.39 160.145 174.276 160.271 174.145V172.934C159.767 172.957 159.345 173.002 159.004 173.067C158.668 173.128 158.398 173.207 158.192 173.305C157.987 173.403 157.84 173.517 157.751 173.648C157.667 173.779 157.625 173.921 157.625 174.075C157.625 174.378 157.714 174.595 157.891 174.726C158.073 174.857 158.309 174.922 158.598 174.922ZM163.658 176V168.818H164.715C164.939 168.818 165.086 168.923 165.156 169.133L165.275 169.7C165.42 169.551 165.572 169.415 165.73 169.294C165.894 169.173 166.064 169.068 166.241 168.979C166.423 168.89 166.617 168.823 166.822 168.776C167.028 168.729 167.252 168.706 167.494 168.706C167.886 168.706 168.234 168.774 168.537 168.909C168.841 169.04 169.093 169.226 169.293 169.469C169.499 169.707 169.653 169.994 169.755 170.33C169.863 170.661 169.916 171.028 169.916 171.429V176H168.187V171.429C168.187 170.99 168.085 170.652 167.879 170.414C167.679 170.171 167.375 170.05 166.969 170.05C166.671 170.05 166.391 170.118 166.129 170.253C165.868 170.388 165.621 170.573 165.387 170.806V176H163.658ZM176.662 170.337C176.611 170.402 176.56 170.454 176.508 170.491C176.462 170.528 176.392 170.547 176.298 170.547C176.21 170.547 176.123 170.521 176.039 170.47C175.955 170.414 175.855 170.353 175.738 170.288C175.622 170.218 175.482 170.157 175.318 170.106C175.16 170.05 174.961 170.022 174.723 170.022C174.42 170.022 174.154 170.078 173.925 170.19C173.697 170.297 173.505 170.454 173.351 170.659C173.202 170.864 173.09 171.114 173.015 171.408C172.941 171.697 172.903 172.026 172.903 172.395C172.903 172.778 172.943 173.118 173.022 173.417C173.106 173.716 173.225 173.968 173.379 174.173C173.533 174.374 173.72 174.528 173.939 174.635C174.159 174.738 174.406 174.789 174.681 174.789C174.957 174.789 175.178 174.756 175.346 174.691C175.519 174.621 175.664 174.546 175.78 174.467C175.897 174.383 175.997 174.308 176.081 174.243C176.17 174.173 176.268 174.138 176.375 174.138C176.515 174.138 176.62 174.192 176.69 174.299L177.187 174.929C176.996 175.153 176.788 175.342 176.564 175.496C176.34 175.645 176.107 175.767 175.864 175.86C175.626 175.949 175.379 176.012 175.122 176.049C174.866 176.086 174.611 176.105 174.359 176.105C173.916 176.105 173.498 176.023 173.106 175.86C172.714 175.692 172.371 175.449 172.077 175.132C171.788 174.815 171.557 174.427 171.384 173.97C171.216 173.508 171.132 172.983 171.132 172.395C171.132 171.868 171.207 171.38 171.356 170.932C171.51 170.479 171.734 170.09 172.028 169.763C172.322 169.432 172.686 169.173 173.12 168.986C173.554 168.799 174.054 168.706 174.618 168.706C175.155 168.706 175.624 168.792 176.025 168.965C176.431 169.138 176.795 169.385 177.117 169.707L176.662 170.337ZM181.255 168.706C181.708 168.706 182.123 168.778 182.501 168.923C182.884 169.068 183.213 169.28 183.488 169.56C183.764 169.835 183.978 170.176 184.132 170.582C184.286 170.983 184.363 171.443 184.363 171.961C184.363 172.092 184.356 172.201 184.342 172.29C184.333 172.374 184.312 172.442 184.279 172.493C184.251 172.54 184.212 172.575 184.16 172.598C184.109 172.617 184.044 172.626 183.964 172.626H179.526C179.578 173.363 179.776 173.905 180.121 174.25C180.467 174.595 180.924 174.768 181.493 174.768C181.773 174.768 182.014 174.735 182.214 174.67C182.42 174.605 182.597 174.532 182.746 174.453C182.9 174.374 183.033 174.301 183.145 174.236C183.262 174.171 183.374 174.138 183.481 174.138C183.551 174.138 183.612 174.152 183.663 174.18C183.715 174.208 183.759 174.248 183.796 174.299L184.3 174.929C184.109 175.153 183.894 175.342 183.656 175.496C183.418 175.645 183.169 175.767 182.907 175.86C182.651 175.949 182.387 176.012 182.116 176.049C181.85 176.086 181.591 176.105 181.339 176.105C180.84 176.105 180.376 176.023 179.946 175.86C179.517 175.692 179.144 175.447 178.826 175.125C178.509 174.798 178.259 174.397 178.077 173.921C177.895 173.44 177.804 172.885 177.804 172.255C177.804 171.765 177.884 171.305 178.042 170.876C178.201 170.442 178.427 170.066 178.721 169.749C179.02 169.427 179.382 169.173 179.806 168.986C180.236 168.799 180.719 168.706 181.255 168.706ZM181.29 169.945C180.786 169.945 180.392 170.087 180.107 170.372C179.823 170.657 179.641 171.06 179.561 171.583H182.809C182.809 171.359 182.779 171.149 182.718 170.953C182.658 170.752 182.564 170.577 182.438 170.428C182.312 170.279 182.154 170.162 181.962 170.078C181.771 169.989 181.547 169.945 181.29 169.945Z" fill="#636872"/>
<path fill-rule="evenodd" clip-rule="evenodd" d="M160 40L174 48H146L160 40ZM154 48.8H150V60.8H154V48.8ZM162 48.8V60.8H158V48.8H162ZM166 48.8H170V60.8H166V48.8ZM173.2 61.6H146.8V64.8H173.2V61.6Z" fill="#38C72A"/>
<path d="M54.9535 345H53.0635V334.878H54.9535V345ZM57.1369 345V337.818H58.1939C58.4179 337.818 58.5649 337.923 58.6349 338.133L58.7469 338.665C58.8729 338.525 59.0036 338.397 59.1389 338.28C59.2789 338.163 59.4259 338.063 59.5799 337.979C59.7386 337.895 59.9066 337.83 60.0839 337.783C60.2659 337.732 60.4642 337.706 60.6789 337.706C61.1316 337.706 61.5026 337.83 61.7919 338.077C62.0859 338.32 62.3052 338.644 62.4499 339.05C62.5619 338.812 62.7019 338.609 62.8699 338.441C63.0379 338.268 63.2222 338.128 63.4229 338.021C63.6236 337.914 63.8359 337.834 64.0599 337.783C64.2886 337.732 64.5172 337.706 64.7459 337.706C65.1426 337.706 65.4949 337.767 65.8029 337.888C66.1109 338.009 66.3699 338.187 66.5799 338.42C66.7899 338.653 66.9486 338.938 67.0559 339.274C67.1679 339.61 67.2239 339.995 67.2239 340.429V345H65.4949V340.429C65.4949 339.972 65.3946 339.629 65.1939 339.4C64.9932 339.167 64.6992 339.05 64.3119 339.05C64.1346 339.05 63.9689 339.08 63.8149 339.141C63.6656 339.202 63.5326 339.29 63.4159 339.407C63.3039 339.519 63.2152 339.661 63.1499 339.834C63.0846 340.007 63.0519 340.205 63.0519 340.429V345H61.3159V340.429C61.3159 339.948 61.2179 339.598 61.0219 339.379C60.8306 339.16 60.5459 339.05 60.1679 339.05C59.9206 339.05 59.6872 339.113 59.4679 339.239C59.2532 339.36 59.0526 339.528 58.8659 339.743V345H57.1369ZM68.922 347.345V337.818H69.979C70.091 337.818 70.1867 337.844 70.266 337.895C70.3454 337.946 70.3967 338.026 70.42 338.133L70.56 338.798C70.8494 338.467 71.1807 338.198 71.554 337.993C71.932 337.788 72.373 337.685 72.877 337.685C73.269 337.685 73.626 337.767 73.948 337.93C74.2747 338.093 74.5547 338.331 74.788 338.644C75.026 338.952 75.208 339.335 75.334 339.792C75.4647 340.245 75.53 340.765 75.53 341.353C75.53 341.89 75.4577 342.387 75.313 342.844C75.1684 343.301 74.9607 343.698 74.69 344.034C74.424 344.37 74.0997 344.634 73.717 344.825C73.339 345.012 72.9144 345.105 72.443 345.105C72.037 345.105 71.6917 345.044 71.407 344.923C71.127 344.797 70.875 344.624 70.651 344.405V347.345H68.922ZM72.282 339.05C71.9227 339.05 71.6147 339.127 71.358 339.281C71.106 339.43 70.8704 339.643 70.651 339.918V343.138C70.847 343.381 71.0594 343.551 71.288 343.649C71.5214 343.742 71.771 343.789 72.037 343.789C72.2984 343.789 72.534 343.74 72.744 343.642C72.9587 343.544 73.1384 343.395 73.283 343.194C73.4324 342.993 73.5467 342.741 73.626 342.438C73.7054 342.13 73.745 341.768 73.745 341.353C73.745 340.933 73.71 340.578 73.64 340.289C73.5747 339.995 73.479 339.757 73.353 339.575C73.227 339.393 73.073 339.26 72.891 339.176C72.7137 339.092 72.5107 339.05 72.282 339.05ZM79.9041 337.706C80.4407 337.706 80.9261 337.792 81.3601 337.965C81.7987 338.138 82.1721 338.383 82.4801 338.7C82.7881 339.017 83.0261 339.405 83.1941 339.862C83.3621 340.319 83.4461 340.83 83.4461 341.395C83.4461 341.964 83.3621 342.478 83.1941 342.935C83.0261 343.392 82.7881 343.782 82.4801 344.104C82.1721 344.426 81.7987 344.673 81.3601 344.846C80.9261 345.019 80.4407 345.105 79.9041 345.105C79.3674 345.105 78.8797 345.019 78.4411 344.846C78.0024 344.673 77.6267 344.426 77.3141 344.104C77.0061 343.782 76.7657 343.392 76.5931 342.935C76.4251 342.478 76.3411 341.964 76.3411 341.395C76.3411 340.83 76.4251 340.319 76.5931 339.862C76.7657 339.405 77.0061 339.017 77.3141 338.7C77.6267 338.383 78.0024 338.138 78.4411 337.965C78.8797 337.792 79.3674 337.706 79.9041 337.706ZM79.9041 343.775C80.5014 343.775 80.9424 343.574 81.2271 343.173C81.5164 342.772 81.6611 342.184 81.6611 341.409C81.6611 340.634 81.5164 340.044 81.2271 339.638C80.9424 339.232 80.5014 339.029 79.9041 339.029C79.2974 339.029 78.8494 339.234 78.5601 339.645C78.2707 340.051 78.1261 340.639 78.1261 341.409C78.1261 342.179 78.2707 342.767 78.5601 343.173C78.8494 343.574 79.2974 343.775 79.9041 343.775ZM84.7951 345V337.818H85.8101C85.9874 337.818 86.1111 337.851 86.1811 337.916C86.2511 337.981 86.2978 338.093 86.3211 338.252L86.4261 339.12C86.6828 338.677 86.9838 338.327 87.3291 338.07C87.6744 337.813 88.0618 337.685 88.4911 337.685C88.8458 337.685 89.1398 337.767 89.3731 337.93L89.1491 339.225C89.1351 339.309 89.1048 339.37 89.0581 339.407C89.0114 339.44 88.9484 339.456 88.8691 339.456C88.7991 339.456 88.7034 339.44 88.5821 339.407C88.4608 339.374 88.2998 339.358 88.0991 339.358C87.7398 339.358 87.4318 339.458 87.1751 339.659C86.9184 339.855 86.7014 340.144 86.5241 340.527V345H84.7951ZM92.8689 345.112C92.2483 345.112 91.7699 344.937 91.4339 344.587C91.0979 344.232 90.9299 343.745 90.9299 343.124V339.113H90.2019C90.1086 339.113 90.0269 339.083 89.9569 339.022C89.8916 338.961 89.8589 338.87 89.8589 338.749V338.063L91.0139 337.874L91.3779 335.914C91.3966 335.821 91.4386 335.748 91.5039 335.697C91.5739 335.646 91.6603 335.62 91.7629 335.62H92.6589V337.881H94.5489V339.113H92.6589V343.005C92.6589 343.229 92.7149 343.404 92.8269 343.53C92.9389 343.656 93.0883 343.719 93.2749 343.719C93.3823 343.719 93.4709 343.707 93.5409 343.684C93.6156 343.656 93.6786 343.628 93.7299 343.6C93.7859 343.572 93.8349 343.546 93.8769 343.523C93.9189 343.495 93.9609 343.481 94.0029 343.481C94.0543 343.481 94.0963 343.495 94.1289 343.523C94.1616 343.546 94.1966 343.584 94.2339 343.635L94.7519 344.475C94.4999 344.685 94.2106 344.844 93.8839 344.951C93.5573 345.058 93.2189 345.112 92.8689 345.112Z" fill="#0073C1"/>
<path fill-rule="evenodd" clip-rule="evenodd" d="M34 345.997V340.997H37.4033C37.9537 340.997 38.1096 340.648 37.7593 340.226L33.6406 335.268C33.2868 334.842 32.7096 334.847 32.3593 335.268L28.2406 340.226C27.8868 340.652 28.0503 340.997 28.5966 340.997H32V345.997C32 346.551 32.4438 347 33 347C33.5522 347 34 346.556 34 345.997ZM27 334V332.997H39V334C39 334.552 39.4439 335 40 335C40.5523 335 41 334.557 41 334V332.997V331.997C41 331.445 40.5554 330.997 39.9991 330.997H26.0009C25.4481 330.997 25 331.441 25 331.997V332.997V334C25 334.552 25.4439 335 26 335C26.5523 335 27 334.557 27 334Z" fill="#979797"/>
<defs>
<filter id="filter0_i_8_559" x="1" y="309" width="318" height="60" filterUnits="userSpaceOnUse" color-interpolation-filters="sRGB">
<feFlood flood-opacity="0" result="BackgroundImageFix"/>
<feBlend mode="normal" in="SourceGraphic" in2="BackgroundImageFix" result="shape"/>
<feColorMatrix in="SourceAlpha" type="matrix" values="0 0 0 0 0 0 0 0 0 0 0 0 0 0 0 0 0 0 127 0" result="hardAlpha"/>
<feOffset dy="1"/>
<feComposite in2="hardAlpha" operator="arithmetic" k2="-1" k3="1"/>
<feColorMatrix type="matrix" values="0 0 0 0 0.921569 0 0 0 0 0.92549 0 0 0 0 0.929412 0 0 0 1 0"/>
<feBlend mode="normal" in2="shape" result="effect1_innerShadow_8_559"/>
</filter>
</defs>
</svg>
